<svg width="79" height="83" viewBox="0 0 79 83" fill="none" xmlns="http://www.w3.org/2000/svg">
<path d="M13.7101 8.03815H1V81.0417H43.9327V67.2828L25.4679 48.8042V38.247L34.7693 28.9456V1H19.8512L13.7101 8.03815Z" stroke="#334DA6" stroke-width="2" stroke-miterlimit="10" stroke-linecap="round" stroke-linejoin="round"/>
<path d="M34.7693 8.63156H59.941L65.8613 14.5381V21.4934H34.7693V8.63156Z" stroke="#334DA6" stroke-width="2" stroke-miterlimit="10" stroke-linecap="round" stroke-linejoin="round"/>
<path d="M46.4858 21.4934V29.4286L50.1429 34.9763H55.8286L59.4995 29.4286V21.4934H46.4858Z" stroke="#334DA6" stroke-width="2" stroke-miterlimit="10" stroke-linecap="round" stroke-linejoin="round"/>
<path d="M44.9399 29.2768H61.0311" stroke="#334DA6" stroke-miterlimit="10" stroke-linecap="round" stroke-linejoin="round"/>
<path d="M30.3948 53.7309H63.9295C71.4644 53.7309 77.5779 59.8444 77.5779 67.3793C77.5779 74.9143 71.4644 81.0278 63.9295 81.0278H43.9329" stroke="#334DA6" stroke-width="2" stroke-miterlimit="10"/>
<path d="M63.8879 74.2795C67.6835 74.2795 70.7605 71.1964 70.7605 67.3932C70.7605 63.59 67.6835 60.5068 63.8879 60.5068C60.0923 60.5068 57.0154 63.59 57.0154 67.3932C57.0154 71.1964 60.0923 74.2795 63.8879 74.2795Z" stroke="#334DA6" stroke-miterlimit="10"/>
<path d="M24.1706 69.9048C25.5577 69.9048 26.6822 68.7803 26.6822 67.3932C26.6822 66.006 25.5577 64.8815 24.1706 64.8815C22.7834 64.8815 21.6589 66.006 21.6589 67.3932C21.6589 68.7803 22.7834 69.9048 24.1706 69.9048Z" stroke="#334DA6" stroke-miterlimit="10"/>
<path d="M63.8879 69.9048C65.275 69.9048 66.3995 68.7803 66.3995 67.3932C66.3995 66.006 65.275 64.8815 63.8879 64.8815C62.5007 64.8815 61.3762 66.006 61.3762 67.3932C61.3762 68.7803 62.5007 69.9048 63.8879 69.9048Z" stroke="#334DA6" stroke-miterlimit="10"/>
<path d="M24.1706 17.5741C25.5577 17.5741 26.6822 16.4496 26.6822 15.0625C26.6822 13.6753 25.5577 12.5508 24.1706 12.5508C22.7834 12.5508 21.6589 13.6753 21.6589 15.0625C21.6589 16.4496 22.7834 17.5741 24.1706 17.5741Z" stroke="#334DA6" stroke-miterlimit="10"/>
<path d="M12.5646 69.9048C13.9518 69.9048 15.0763 68.7803 15.0763 67.3932C15.0763 66.006 13.9518 64.8815 12.5646 64.8815C11.1775 64.8815 10.053 66.006 10.053 67.3932C10.053 68.7803 11.1775 69.9048 12.5646 69.9048Z" stroke="#334DA6" stroke-miterlimit="10"/>
<path d="M57.0017 67.3932H43.9329" stroke="#334DA6" stroke-miterlimit="10"/>
<path d="M43.9327 76.2936L1 76.2936" stroke="#334DA6" stroke-miterlimit="10"/>
<path d="M9.97046 27.2481H16.4152" stroke="#334DA6" stroke-miterlimit="10" stroke-linecap="round" stroke-linejoin="round"/>
<path d="M34.7693 15.1453H42.7109" stroke="#334DA6" stroke-miterlimit="10" stroke-linecap="round" stroke-linejoin="round"/>
<path d="M9.97046 31.2088H16.4152" stroke="#334DA6" stroke-miterlimit="10" stroke-linecap="round" stroke-linejoin="round"/>
<path d="M9.97046 35.1557H16.4152" stroke="#334DA6" stroke-miterlimit="10" stroke-linecap="round" stroke-linejoin="round"/>
<path d="M52.9858 41.3244C51.5782 41.3244 50.4465 40.1928 50.4465 38.7852V37.833H55.525V38.7852C55.525 40.1928 54.3796 41.3244 52.9858 41.3244Z" stroke="#334DA6" stroke-miterlimit="10" stroke-linecap="round" stroke-linejoin="round"/>
</svg>
